<svg xmlns="http://www.w3.org/2000/svg" viewBox="0 0 495.936 495.936" width="512" height="512"><path fill="#ffd6cf" d="M261.44 126.639l5.414-36.48-30.13-1.924-6.004 33.213z"/><path opacity=".32" fill="#831232" d="M263.789 113.234l3.065-23.075-29.919-3.126-3.854 20.941z"/><path fill="#998269" d="M390.253 81.468h20.314v175.014h-20.314z"/><path fill="#998269" d="M390.253 221.817h20.808v274.119h-20.808z"/><path fill="#836f5a" d="M390.253 210.585h20.314v45.898h-20.314z"/><path d="M86.223 411.571l68.329-65.439 24.642-84.343h37.709l-27.157 98.642a18.662 18.662 0 0 1-3.718 7.136 18.748 18.748 0 0 1-2.158 2.612l-80.076 77.462-17.571-36.07z" fill="#347642"/><path fill="#2b5448" d="M179.194 261.789l-9.511 32.553h38.258l8.962-32.553z" opacity=".53"/><path d="M290.966 8.628c-4.351-4.675-10.245-7.376-16.597-7.604L246.345.016c-13.173-.461-24.232 9.841-24.705 22.99l-1.765 49.08c-.229 6.352 2.042 12.425 6.393 17.101 4.351 4.676 10.245 7.376 16.597 7.605l28.023 1.008c.292.011.583.016.874.016 6.033 0 11.767-2.257 16.228-6.408 4.675-4.351 7.376-10.246 7.604-16.597l1.766-49.08c.228-6.355-2.042-12.428-6.394-17.103z" fill="#ffd6cf"/><path d="M157.303 87.679l-23.692-5.615a4.385 4.385 0 0 0-5.325 3.481l-12.838 70.506a5.916 5.916 0 0 0 4.489 6.823l23.25 5.365 14.116-80.56z" fill="#aa6518"/><path d="M176.825 219.612l-38.613-6.767c-5.208-.913-8.722-5.92-7.81-11.129l23.86-136.156c.913-5.208 5.92-8.722 11.129-7.81l38.613 6.767c5.208.913 8.722 5.92 7.81 11.129l-23.86 136.156c-.913 5.208-5.921 8.723-11.129 7.81z" fill="#ffb057"/><path d="M204.004 64.518l-1.495-.262-23.391 133.483c-.913 5.208-5.92 8.722-11.128 7.81l-37.118-6.505-.468 2.672c-.913 5.208 2.602 10.216 7.81 11.128l38.613 6.767c5.208.913 10.216-2.602 11.129-7.81l23.86-136.156c.91-5.206-2.604-10.214-7.812-11.127z" opacity=".48" fill="#aa6518"/><path d="M295.491 15.376a24 24 0 0 0-4.436-6.748c-4.351-4.675-10.245-7.376-16.597-7.604L246.434.016c-13.173-.461-24.232 9.841-24.705 22.99l-1.045 29.051c11.485-2.103 52.195-11.13 74.807-36.681z" fill="#c71c4b"/><path d="M273.743 154.929c3.03-17.293-8.639-33.921-25.932-36.952l-32.653-5.722c-5.208-.913-10.216 2.602-11.129 7.81l-24.835 141.723 31.074 5.445c.178.361.347.724.551 1.077l51.96 91.727v101.154l37.734 4.384V356.311c0-1.152-.121-2.276-.321-3.373a18.658 18.658 0 0 0-2.417-7.675l-43.828-77.372 12.087-68.975 7.709-43.987z" fill="#71ce93"/><path fill="#71ce93" d="M220.917 153.798l71.75 71.75.454-.454.026.611 90.195-3.888-1.506-34.917-75.151 3.24-56.868-54.505z"/><path d="M119.415 483.709l-52.663-52.663 19.475-19.475 39.956 50.461a11.883 11.883 0 0 1-.883 15.75l-5.885 5.927z" fill="#d8edde"/><path fill="#ffd6cf" d="M381.836 186.9l47.348-2.398-13.745 36.524-32.097.791z"/><path d="M300.193 352.938a18.658 18.658 0 0 0-2.417-7.675l-43.828-77.372 4.669-26.645-73.631-12.507-5.792 33.049 31.074 5.445c.178.361.347.724.551 1.077l51.96 91.727v101.154l37.734 9.553V356.311a18.676 18.676 0 0 0-.32-3.373z" fill="#3f8e50"/><circle cx="250.335" cy="48.907" r="14.02" fill="#ffd6cf"/><path d="M337.257 488.734H262.78v-27.541l63.934 7.428a11.883 11.883 0 0 1 10.512 11.761l.031 8.352z" fill="#d8edde"/></svg>